<svg version="1.1" id="Layer_1" xmlns="http://www.w3.org/2000/svg" xmlns:xlink="http://www.w3.org/1999/xlink" x="0px" y="0px"
	 width="100%" viewBox="0 0 223 207" enable-background="new 0 0 223 207" xml:space="preserve">
<path fill="#FFFFFF" opacity="1.000000" stroke="none" 
	d="
M158.000000,208.000000 
	C106.666672,208.000000 55.833218,207.956238 5.000280,208.097488 
	C1.575025,208.107010 0.896897,207.424500 0.903457,203.999832 
	C1.033074,136.333405 1.000000,68.666687 1.000000,1.000011 
	C73.999992,1.000000 147.000031,1.030690 219.999802,0.903683 
	C223.424255,0.897725 224.103333,1.575407 224.096603,5.000154 
	C223.966278,71.333229 223.966293,137.666687 224.096603,203.999771 
	C224.103333,207.424347 223.429565,208.136246 219.999023,208.101837 
	C199.501068,207.896164 179.000015,208.000000 158.000000,208.000000 
z"/>
<path fill="#FEFCFD" opacity="1.000000" stroke="none" 
	d="
M144.341019,117.572021 
	C143.820709,118.328468 143.542572,118.861145 143.141678,119.668961 
	C142.776230,120.170158 142.546219,120.408478 142.156998,120.838501 
	C141.985077,121.017960 141.996521,120.998009 142.005066,120.990341 
	C141.564087,121.409660 141.491821,121.998604 141.165375,122.786530 
	C140.991333,123.019913 140.998489,122.998192 141.008362,122.992416 
	C140.780411,123.206329 140.548553,123.432137 140.155579,123.840149 
	C139.988480,124.016243 139.997986,123.997963 140.007095,123.993195 
	C139.778870,124.207840 139.547440,124.433311 139.155029,124.840622 
	C138.988174,125.016403 138.997894,124.998436 139.007523,124.995041 
	C135.842926,127.064682 132.266281,126.275139 128.830627,126.375702 
	C124.384087,126.505867 119.926346,126.270386 115.473709,126.874512 
	C124.151161,128.464340 133.072235,126.426903 142.029495,128.978729 
	C143.019485,132.527130 141.798050,133.588501 138.415665,133.556503 
	C121.640778,133.397736 104.863579,133.485458 87.612610,133.480148 
	C84.774384,133.065048 86.103157,131.816757 86.768753,130.375244 
	C87.011826,129.976730 87.000374,130.000931 86.988037,130.006149 
	C87.422195,129.588104 88.019600,129.532410 88.792542,129.172302 
	C89.016983,128.987000 89.002197,129.003433 88.992767,129.009216 
	C89.220284,128.793228 89.452217,128.566330 89.847389,128.158493 
	C90.015640,127.982658 90.003540,128.002243 89.995094,128.010040 
	C90.435921,127.590340 90.508171,127.001091 90.835007,126.212875 
	C91.009109,125.979370 91.001213,126.001045 90.990372,126.004997 
	C91.425438,125.585022 92.023987,125.532608 92.795593,125.169998 
	C93.020088,124.984955 93.003395,125.003319 92.993469,125.010773 
	C93.470062,124.425385 93.831398,123.714134 94.786781,123.168854 
	C95.012901,122.986809 95.002090,123.002701 94.993774,123.007515 
	C95.222015,122.791481 95.453384,122.565331 95.847290,122.158478 
	C96.015007,121.983093 96.003418,122.002220 95.995110,122.009720 
	C96.437149,121.589577 96.508072,120.998985 96.836555,120.210358 
	C97.010742,119.976509 97.001030,120.001480 96.989853,120.008873 
	C97.218666,119.794617 97.452614,119.566765 97.849045,119.154938 
	C98.017570,118.977158 98.001335,119.000748 97.988129,119.006256 
	C98.421753,118.588486 99.019386,118.532402 99.792686,118.171967 
	C100.017174,117.986481 100.002129,118.003403 99.992447,118.009262 
	C100.219345,117.794052 100.450821,117.567764 100.844849,117.160645 
	C101.012497,116.985023 101.002312,117.002296 100.993698,117.007423 
	C101.220802,116.792656 101.451279,116.567413 101.843079,116.161636 
	C102.009636,115.986458 102.002113,116.002144 101.994263,116.005905 
	C102.222908,115.790459 102.453712,115.565422 102.845787,115.159637 
	C103.012726,114.984726 103.002289,115.002296 102.993515,115.007538 
	C103.220924,114.792496 103.451859,114.566849 103.844627,114.160507 
	C104.011696,113.985176 104.002258,114.002243 103.993744,114.006996 
	C104.221161,113.792236 104.451683,113.567177 104.843277,113.161430 
	C105.009766,112.986290 105.002129,113.002151 104.994278,113.006165 
	C105.247459,112.772018 105.490799,112.516975 105.876816,112.034424 
	C106.213898,111.304504 106.390617,110.785210 106.810883,110.121887 
	C107.187302,109.835274 107.320175,109.692703 107.679382,109.365128 
	C108.427422,108.811699 108.949120,108.443283 109.806961,108.060493 
	C113.359047,108.942039 115.882057,107.549446 118.133598,105.507576 
	C121.272964,102.660545 121.369408,99.581459 118.460648,96.060539 
	C118.552505,93.319275 118.087883,90.865608 118.881622,88.137039 
	C119.233177,86.871178 119.591125,85.988434 120.001862,84.754105 
	C120.207733,84.210915 120.298950,83.998222 120.549911,83.480415 
	C122.495842,80.266815 123.286720,77.002502 124.175812,73.413498 
	C124.839676,71.620941 125.626320,70.224884 125.744278,68.251740 
	C125.788033,67.659027 125.809135,67.419312 125.884628,66.816818 
	C126.043480,65.962822 126.197365,65.487503 126.585876,64.689758 
	C128.180634,62.408588 129.506943,60.298370 132.805939,61.804230 
	C141.547562,65.795227 145.432159,73.327003 148.996765,81.501633 
	C150.787262,87.140869 151.064178,92.593460 150.995804,98.482002 
	C150.751114,101.712372 151.628799,104.646553 150.090744,107.768829 
	C148.578934,109.313858 148.028183,110.939850 147.185760,112.762566 
	C146.992050,113.016510 146.997421,112.998192 147.004288,112.991592 
	C146.254669,113.678383 146.589844,114.648834 146.184204,115.751801 
	C145.990570,116.023178 145.997955,115.999870 146.008331,115.993416 
	C145.548462,116.449417 145.071945,116.905289 144.341019,117.572021 
z"/>
<path fill="#FDFCFC" opacity="1.000000" stroke="none" 
	d="
M120.144386,86.956650 
	C119.637772,89.831467 119.313866,92.400482 118.978806,95.365463 
	C121.646675,99.369987 121.363724,102.768639 117.951523,106.178589 
	C117.198334,106.501686 116.737801,106.513245 115.668732,106.254189 
	C113.106026,106.251396 111.915489,105.258080 111.085449,103.191940 
	C109.873665,101.574539 109.978760,100.177643 110.781448,98.359390 
	C111.006416,97.982559 111.002151,98.002075 110.992393,98.004189 
	C111.981514,97.216713 113.156059,97.025925 114.742905,97.001892 
	C117.372467,95.955551 118.237450,94.437263 116.454193,92.065140 
	C114.044968,93.194717 112.043877,94.650772 109.141502,94.164322 
	C108.582817,93.883232 108.366661,93.717957 108.118729,93.293640 
	C107.620842,92.617661 107.035904,92.488922 106.217384,92.168350 
	C105.977165,91.990273 106.002373,91.998192 106.008865,92.009689 
	C105.795677,91.782555 105.569618,91.550125 105.160553,91.156708 
	C104.983917,90.989525 105.002762,90.997238 105.006668,91.006638 
	C104.791550,90.778275 104.566185,90.546677 104.158577,90.154488 
	C103.982658,89.987740 104.001846,89.996422 104.006088,90.006065 
	C103.330147,89.207161 102.404175,88.776611 101.223679,88.176590 
	C100.979706,87.990875 101.002892,87.998123 101.008575,88.008858 
	C100.777161,87.774162 100.545677,87.523537 100.143555,87.082184 
	C93.121544,82.198540 86.536018,77.177277 80.325226,71.159660 
	C80.651451,69.332573 79.333626,69.595413 78.217049,69.210197 
	C77.984894,68.992897 78.002686,68.997345 78.006981,69.005447 
	C77.168472,68.425613 76.440193,67.770256 76.798340,66.288315 
	C77.007156,65.978348 77.002045,66.002182 76.991379,66.008087 
	C77.219276,65.793968 77.451744,65.567680 77.845482,65.158493 
	C78.012848,64.981857 78.002808,65.002831 77.992332,65.007874 
	C78.220207,64.793053 78.452477,64.566940 78.845901,64.158096 
	C79.013130,63.981602 79.002815,64.002846 78.992210,64.008041 
	C79.220695,63.792629 79.453682,63.565762 79.848312,63.155540 
	C80.016060,62.978451 80.002289,63.001865 79.989410,63.006180 
	C80.422562,62.587990 81.019035,62.532410 81.790665,62.172874 
	C82.014374,61.987366 82.002975,62.003166 81.993835,62.006531 
	C82.528305,61.472969 83.076523,60.940659 83.809059,60.187401 
	C84.010231,59.983356 84.001320,60.003059 83.990814,60.005592 
	C84.425621,59.585133 85.022896,59.532570 85.793083,59.171051 
	C86.016754,58.985821 86.002510,59.004330 85.991974,59.009369 
	C86.219963,58.793419 86.452690,58.566479 86.847321,58.156609 
	C87.015015,57.979622 87.002487,58.001942 86.990242,58.005638 
	C87.424995,57.585274 88.024788,57.532631 88.796776,57.167236 
	C89.021049,56.981079 89.002495,57.002640 88.988907,57.006828 
	C90.013039,56.160019 91.381783,56.034866 92.767746,55.188812 
	C93.019188,54.981510 93.001587,55.002823 92.988174,55.006149 
	C96.255165,54.231655 99.459557,53.127666 103.249268,52.623070 
	C107.210899,52.526608 110.748207,52.458672 114.670601,52.791878 
	C119.785187,54.290447 125.618546,53.341259 128.020218,59.786789 
	C128.591293,60.770203 128.559250,61.412933 127.962074,62.344185 
	C127.408722,62.921375 127.062386,63.217754 126.454224,63.724541 
	C126.015060,65.167885 122.106689,66.666702 126.731888,67.760971 
	C127.172661,69.670807 126.556137,71.131905 125.405121,72.731010 
	C123.496773,76.291023 122.905556,80.010330 121.200195,83.714432 
	C120.987312,84.021088 120.998573,83.998878 121.005409,83.988464 
	C120.219330,84.724266 120.625923,85.777969 120.144386,86.956650 
z"/>
<path fill="#FDFCFC" opacity="1.000000" stroke="none" 
	d="
M78.590424,78.156509 
	C79.730972,78.246696 80.546539,78.485855 81.659164,78.854538 
	C82.240509,79.256348 82.506149,79.545738 82.892426,80.112244 
	C83.137527,80.537773 83.266777,80.682335 83.540421,80.887619 
	C84.229134,81.304718 84.842911,81.512039 85.755066,81.816956 
	C86.019951,82.007828 85.997696,82.002289 85.992554,81.992043 
	C86.207993,82.221329 86.435005,82.454597 86.845848,82.849350 
	C87.023247,83.017097 86.998543,83.002754 86.993011,82.989594 
	C87.459000,83.584709 87.779778,84.333397 88.788849,84.835411 
	C89.022987,85.011757 88.998535,85.001732 88.994232,84.989243 
	C89.567131,85.693886 89.799004,86.620514 90.651520,87.560898 
	C92.504097,90.659767 94.114952,93.514999 95.861618,96.689545 
	C94.852715,100.127907 95.780815,103.358978 95.476677,106.918335 
	C94.359131,111.573387 92.642746,115.580505 90.206635,119.696838 
	C89.992950,120.017883 89.997314,119.998253 90.006645,119.994492 
	C88.665894,121.382393 87.068863,122.575119 86.186584,124.761147 
	C85.990662,125.020874 85.997978,124.998093 86.009171,124.993858 
	C85.414680,125.459930 84.667595,125.778404 84.167816,126.784439 
	C83.991928,127.017639 83.998215,126.997650 84.008438,126.995377 
	C83.573174,127.415939 82.975410,127.467384 82.205429,127.829803 
	C81.981583,128.014847 81.996956,127.995605 82.007751,127.989685 
	C81.780991,128.205582 81.548630,128.432709 81.153152,128.841400 
	C80.984863,129.017670 80.996803,128.996780 81.007248,128.990784 
	C80.781021,129.205612 80.549576,129.431763 80.156044,129.839081 
	C79.988731,130.014923 79.996941,129.997604 80.006012,129.994446 
	C79.531120,130.465546 79.043800,130.936295 78.301590,131.630661 
	C77.544907,132.234436 77.033218,132.604233 76.192062,133.011536 
	C73.432587,133.862350 73.583244,132.167206 73.515350,130.652283 
	C73.352814,127.026100 73.925209,123.369026 73.027557,119.320923 
	C72.994530,118.869408 72.990067,118.416054 72.988571,118.189377 
	C71.958351,116.910431 70.911392,115.882843 69.231689,115.182205 
	C68.981400,114.991524 69.002197,114.996735 69.008636,115.005318 
	C67.432571,113.989639 65.690361,113.054779 66.790054,110.316727 
	C67.007317,109.982689 67.003304,110.002213 66.995407,110.008308 
	C67.437637,109.588913 67.508049,109.000374 67.834442,108.214233 
	C68.008354,107.981392 68.003532,108.002014 67.995209,108.008575 
	C68.437019,107.589447 68.508118,107.000969 68.833893,106.214119 
	C69.007553,105.980957 69.003036,106.001305 68.993423,106.005325 
	C69.456871,105.545578 69.935265,105.087456 70.668579,104.416855 
	C70.944450,103.959084 70.977577,103.726631 71.062485,103.145813 
	C71.609962,102.367310 72.087776,101.918068 72.780319,101.218628 
	C73.010063,100.984474 73.003036,101.003006 72.994888,101.008636 
	C74.160950,99.717903 73.982689,98.113083 73.999146,96.217438 
	C73.995903,93.554008 73.997528,91.226921 73.999039,88.462921 
	C73.950111,85.738342 75.070541,83.738808 75.796852,81.284607 
	C76.008720,80.979279 76.001915,81.002731 75.991165,81.008514 
	C76.219261,80.793938 76.452065,80.567360 76.846870,80.158119 
	C77.014923,79.981674 77.004356,80.002274 76.994904,80.008942 
	C77.455666,79.478172 77.757057,78.814369 78.590424,78.156509 
z"/>
<path fill="#FDFCFC" opacity="1.000000" stroke="none" 
	d="
M72.786514,145.426086 
	C73.213173,140.250626 77.490982,139.332062 80.729721,137.067871 
	C82.800652,137.952408 84.658195,137.486053 86.443733,137.492020 
	C104.649071,137.552963 122.854645,137.470749 141.533112,137.674530 
	C143.694885,141.245178 143.038284,144.812714 142.282013,148.783676 
	C128.367203,149.851883 114.718285,149.343246 101.073639,149.469925 
	C92.747375,149.547256 84.419098,149.424927 76.093185,149.518448 
	C73.419579,149.548492 71.797318,148.974869 72.786514,145.426086 
z"/>
<path fill="#C4C4C4" opacity="1.000000" stroke="none" 
	d="
M72.705139,145.183350 
	C72.430321,148.509415 74.333199,149.045456 77.348869,149.030350 
	C98.576637,148.923935 119.805069,148.951981 141.497559,148.892456 
	C142.111771,149.020676 142.261703,149.193497 142.186737,149.625565 
	C119.685616,149.922897 97.409035,149.906555 75.133453,150.047943 
	C70.999268,150.074188 70.430748,148.629532 72.705139,145.183350 
z"/>
<path fill="#D1D0D1" opacity="1.000000" stroke="none" 
	d="
M142.170410,128.845551 
	C133.324234,129.063171 124.714653,129.059814 116.106339,128.953461 
	C114.624390,128.935150 112.335823,129.705734 112.208839,127.181404 
	C112.057068,124.164093 114.635788,125.081795 116.223305,125.056236 
	C123.506989,124.939026 130.792999,124.966248 138.547668,124.966637 
	C138.834137,125.299850 138.651138,125.608055 138.240692,126.067795 
	C132.306274,127.978752 126.453918,126.357903 122.002518,126.998489 
	C126.216728,127.005104 131.736130,127.019142 137.625732,126.976456 
	C139.104874,127.279282 140.213898,127.592476 141.665283,127.961983 
	C142.140884,128.208786 142.274139,128.399277 142.170410,128.845551 
z"/>
<path fill="#C4C4C4" opacity="1.000000" stroke="none" 
	d="
M141.954224,129.518372 
	C141.949783,128.921066 141.966156,128.740768 141.995087,128.289398 
	C144.004791,133.133240 143.569031,133.971603 138.617844,133.979507 
	C121.396912,134.007019 104.175896,133.981415 86.488007,133.955750 
	C85.899185,133.760544 85.777267,133.585617 85.846596,133.154327 
	C103.446381,132.934006 120.854973,132.954620 138.263367,133.025391 
	C140.472046,133.034363 142.354965,132.913574 141.954224,129.518372 
z"/>
<path fill="#C4C4C4" opacity="1.000000" stroke="none" 
	d="
M142.192276,137.878662 
	C123.654732,138.097275 105.343193,138.065506 87.031769,138.001877 
	C85.217110,137.995575 83.403130,137.794800 81.336182,137.355453 
	C101.067802,137.022263 121.052063,137.017929 141.501068,137.057297 
	C142.116669,137.273788 142.267502,137.446548 142.192276,137.878662 
z"/>
<path fill="#FDFCFC" opacity="1.000000" stroke="none" 
	d="
M138.000015,126.779404 
	C130.605835,129.123856 123.144646,127.436600 115.723083,127.890228 
	C115.694489,127.301147 115.665894,126.712074 115.637299,126.122993 
	C122.783707,126.122993 129.930115,126.122993 137.544876,126.171158 
	C138.013229,126.219322 138.004181,126.592705 138.000015,126.779404 
z"/>
<path fill="#D1D0D1" opacity="1.000000" stroke="none" 
	d="
M115.805923,105.889343 
	C120.380066,103.975609 120.312721,100.481079 118.972839,96.178986 
	C121.929115,97.669151 122.797569,100.234375 121.194824,103.419838 
	C118.997719,107.786591 115.544510,109.723076 110.383133,108.311691 
	C111.638870,107.574501 113.134636,107.102875 114.845474,106.372559 
	C115.060532,106.113876 115.035973,106.085175 115.040733,106.081787 
	C115.218140,105.939690 115.390793,105.800987 115.805923,105.889343 
z"/>
<path fill="#D1D0D1" opacity="1.000000" stroke="none" 
	d="
M151.267899,98.626694 
	C149.358902,93.499878 150.400833,87.722061 148.761276,82.128334 
	C152.613968,86.949898 151.925308,92.687218 151.267899,98.626694 
z"/>
<path fill="#D1D0D1" opacity="1.000000" stroke="none" 
	d="
M141.967407,138.581421 
	C141.970108,137.964920 141.973969,137.791855 141.971817,137.359894 
	C145.376480,141.082382 144.305725,145.318741 142.319046,149.735855 
	C141.965897,149.712509 141.969955,149.540176 141.967911,149.107849 
	C141.964081,145.573517 141.966339,142.299179 141.967407,138.581421 
z"/>
<path fill="#D1D0D1" opacity="1.000000" stroke="none" 
	d="
M72.749840,119.147781 
	C74.993965,121.510811 73.574043,124.564903 74.030960,127.390160 
	C74.327415,129.223206 73.159691,131.347107 75.477684,132.955078 
	C75.812790,133.968811 76.189095,135.397812 74.935730,135.431015 
	C73.271599,135.475113 73.053276,133.901993 72.996368,132.563507 
	C72.810234,128.185349 72.665695,123.805405 72.749840,119.147781 
z"/>
<path fill="#D1D0D1" opacity="1.000000" stroke="none" 
	d="
M90.308197,119.869804 
	C91.477455,116.168320 92.961967,112.318764 94.703133,108.230690 
	C95.117958,107.820503 95.276131,107.648827 95.679604,107.727028 
	C95.061989,112.300003 93.801537,116.443657 90.308197,119.869804 
z"/>
<path fill="#D1D0D1" opacity="1.000000" stroke="none" 
	d="
M126.810638,62.336590 
	C127.365364,61.576569 127.690483,61.147007 128.042999,60.438187 
	C130.228195,58.448513 131.545929,59.915588 132.992126,61.724262 
	C130.376816,61.078049 129.224045,63.240459 127.404053,64.841919 
	C126.412643,64.251038 126.365860,63.486717 126.810638,62.336590 
z"/>
<path fill="#D1D0D1" opacity="1.000000" stroke="none" 
	d="
M103.264275,52.788525 
	C100.091591,54.382042 96.997025,54.917259 93.394562,55.031319 
	C95.793938,53.198727 98.934959,52.383503 102.620758,52.041145 
	C103.187531,52.225357 103.355568,52.388474 103.264275,52.788525 
z"/>
<path fill="#D1D0D1" opacity="1.000000" stroke="none" 
	d="
M109.099373,94.284531 
	C111.376320,93.556076 113.847786,93.029716 115.477089,90.758293 
	C115.487350,90.743996 115.763466,90.867622 115.853416,90.977577 
	C115.950447,91.096184 115.974426,91.274551 116.085251,91.717636 
	C115.031990,95.911995 112.132431,95.103493 109.099373,94.284531 
z"/>
<path fill="#D1D0D1" opacity="1.000000" stroke="none" 
	d="
M75.699432,81.139999 
	C76.291466,83.336761 75.290855,85.401543 74.258133,87.772064 
	C72.088745,85.293167 74.157898,83.383507 75.699432,81.139999 
z"/>
<path fill="#C4C4C4" opacity="1.000000" stroke="none" 
	d="
M103.465446,53.031925 
	C103.004936,53.025463 103.002243,52.543266 103.010872,52.302757 
	C106.846954,52.120495 110.693657,51.479134 114.777168,52.694969 
	C111.346222,53.020744 107.636086,53.029564 103.465446,53.031925 
z"/>
<path fill="#D1D0D1" opacity="1.000000" stroke="none" 
	d="
M66.679626,110.108070 
	C66.831825,111.739517 67.378632,113.214836 68.868126,114.696953 
	C65.577850,114.840721 63.676704,113.811813 66.679626,110.108070 
z"/>
<path fill="#C4C4C4" opacity="1.000000" stroke="none" 
	d="
M95.958069,107.521950 
	C95.924896,107.976906 95.442787,107.993729 95.201294,107.992950 
	C95.090088,104.503387 95.220390,101.014610 95.674057,97.267349 
	C95.995361,100.361572 95.993301,103.714287 95.958069,107.521950 
z"/>
<path fill="#D1D0D1" opacity="1.000000" stroke="none" 
	d="
M86.298187,124.890747 
	C85.775078,122.479019 87.166565,121.002625 89.660553,120.006134 
	C89.860214,122.282066 87.968697,123.332405 86.298187,124.890747 
z"/>
<path fill="#D1D0D1" opacity="1.000000" stroke="none" 
	d="
M110.684975,98.132179 
	C110.985535,99.340439 110.964661,100.698326 110.944397,102.458405 
	C107.703026,101.721428 108.900574,100.018463 110.684975,98.132179 
z"/>
<path fill="#D1D0D1" opacity="1.000000" stroke="none" 
	d="
M73.720642,96.151688 
	C75.674263,97.634689 75.071121,99.208572 73.300270,100.864746 
	C73.140167,99.483604 73.293587,97.952942 73.720642,96.151688 
z"/>
<path fill="#D1D0D1" opacity="1.000000" stroke="none" 
	d="
M147.308441,112.905396 
	C147.001907,111.062675 147.294373,109.241127 149.586182,108.174622 
	C149.643646,109.940125 148.989548,111.543221 147.308441,112.905396 
z"/>
<path fill="#D1D0D1" opacity="1.000000" stroke="none" 
	d="
M69.095207,115.300858 
	C70.816582,114.831993 72.284462,115.299011 72.928535,117.616913 
	C71.260277,117.929230 70.279556,116.697586 69.095207,115.300858 
z"/>
<path fill="#D1D0D1" opacity="1.000000" stroke="none" 
	d="
M114.876236,96.761795 
	C114.264511,98.249664 112.922691,97.925888 111.355865,98.037216 
	C111.783798,96.469910 112.858994,95.613464 114.876236,96.761795 
z"/>
<path fill="#D1D0D1" opacity="1.000000" stroke="none" 
	d="
M86.163956,132.611145 
	C86.029869,133.070953 86.021889,133.243927 86.017502,133.676193 
	C83.601891,132.891953 83.601891,132.891953 86.711014,130.118408 
	C86.771233,130.759262 86.530640,131.541779 86.163956,132.611145 
z"/>
<path fill="#D1D0D1" opacity="1.000000" stroke="none" 
	d="
M92.670258,54.980362 
	C92.455170,56.552387 91.210594,57.025970 89.330826,57.029785 
	C89.657936,55.621124 90.823753,55.027000 92.670258,54.980362 
z"/>
<path fill="#D1D0D1" opacity="1.000000" stroke="none" 
	d="
M77.992859,69.323204 
	C78.764122,69.433891 80.793777,67.931313 80.129906,70.725708 
	C79.071701,70.966164 78.300972,70.660645 77.992859,69.323204 
z"/>
<path fill="#D1D0D1" opacity="1.000000" stroke="none" 
	d="
M78.730247,77.782181 
	C78.448814,78.600357 77.982224,79.193184 77.250534,79.900803 
	C77.119759,78.951447 76.447060,77.375381 78.730247,77.782181 
z"/>
<path fill="#D1D0D1" opacity="1.000000" stroke="none" 
	d="
M90.860786,87.510262 
	C89.415794,87.848038 88.952515,86.959854 88.959778,85.321930 
	C90.000702,85.396423 90.577301,86.172562 90.860786,87.510262 
z"/>
<path fill="#D1D0D1" opacity="1.000000" stroke="none" 
	d="
M101.110428,88.288132 
	C102.180832,87.948799 103.373161,87.926231 103.968765,89.667648 
	C102.832489,90.032181 101.941444,89.493431 101.110428,88.288132 
z"/>
<path fill="#D1D0D1" opacity="1.000000" stroke="none" 
	d="
M72.705101,100.994537 
	C72.964462,101.861916 72.681229,102.569000 71.415695,102.792702 
	C71.189781,101.946579 71.504631,101.267357 72.705101,100.994537 
z"/>
<path fill="#D1D0D1" opacity="1.000000" stroke="none" 
	d="
M70.605408,104.196579 
	C70.825417,105.047882 70.515678,105.741341 69.291824,106.001526 
	C69.045547,105.132507 69.318977,104.409744 70.605408,104.196579 
z"/>
<path fill="#D1D0D1" opacity="1.000000" stroke="none" 
	d="
M76.725021,66.163116 
	C77.266411,66.788429 77.525658,67.598511 77.898094,68.711075 
	C76.122849,68.928490 75.614861,68.031219 76.725021,66.163116 
z"/>
<path fill="#D1D0D1" opacity="1.000000" stroke="none" 
	d="
M144.403107,117.791855 
	C144.190231,116.946098 144.507416,116.260338 145.712036,115.991577 
	C145.961014,116.863541 145.679733,117.577324 144.403107,117.791855 
z"/>
<path fill="#D1D0D1" opacity="1.000000" stroke="none" 
	d="
M83.682709,60.020390 
	C84.013336,60.959408 83.598526,61.639698 82.308647,61.969933 
	C81.949890,61.013985 82.360474,60.330700 83.682709,60.020390 
z"/>
<path fill="#D1D0D1" opacity="1.000000" stroke="none" 
	d="
M78.369629,131.843369 
	C78.155609,131.003601 78.456543,130.292160 79.706207,130.022995 
	C80.042374,130.944656 79.671844,131.608505 78.369629,131.843369 
z"/>
<path fill="#D1D0D1" opacity="1.000000" stroke="none" 
	d="
M146.262115,115.818420 
	C146.142639,115.139572 146.294693,114.255966 146.728943,113.178673 
	C146.851990,113.861214 146.692810,114.737434 146.262115,115.818420 
z"/>
<path fill="#D1D0D1" opacity="1.000000" stroke="none" 
	d="
M94.675583,122.991653 
	C94.521133,123.589493 94.029366,124.192177 93.260567,124.906540 
	C92.960258,124.026123 93.274368,123.260094 94.675583,122.991653 
z"/>
<path fill="#D1D0D1" opacity="1.000000" stroke="none" 
	d="
M84.266403,126.904099 
	C83.949440,126.016197 84.281975,125.269112 85.683891,125.004379 
	C85.527206,125.589935 85.034042,126.190239 84.266403,126.904099 
z"/>
<path fill="#D1D0D1" opacity="1.000000" stroke="none" 
	d="
M88.905655,84.739250 
	C88.021416,85.051414 87.269547,84.726151 87.009705,83.312889 
	C87.587761,83.473206 88.188034,83.969971 88.905655,84.739250 
z"/>
<path fill="#D1D0D1" opacity="1.000000" stroke="none" 
	d="
M96.747269,120.136772 
	C96.847717,120.552292 96.684685,121.128067 96.254227,121.860535 
	C96.152466,121.443825 96.318130,120.870430 96.747269,120.136772 
z"/>
<path fill="#D1D0D1" opacity="1.000000" stroke="none" 
	d="
M141.254456,122.861816 
	C141.153854,122.444611 141.316360,121.869301 141.746231,121.138336 
	C141.848267,121.556343 141.682922,122.130028 141.254456,122.861816 
z"/>
<path fill="#D1D0D1" opacity="1.000000" stroke="none" 
	d="
M92.710831,124.977142 
	C92.546829,125.334114 92.073570,125.683281 91.289925,126.020699 
	C91.453552,125.662407 91.927567,125.315865 92.710831,124.977142 
z"/>
<path fill="#D1D0D1" opacity="1.000000" stroke="none" 
	d="
M99.708252,117.983063 
	C99.544235,118.335777 99.071297,118.685074 98.286636,119.023056 
	C98.449715,118.667717 98.924522,118.323677 99.708252,117.983063 
z"/>
<path fill="#D1D0D1" opacity="1.000000" stroke="none" 
	d="
M90.738892,126.131584 
	C90.845146,126.552429 90.681175,127.125496 90.251923,127.858185 
	C90.147324,127.439812 90.307999,126.861809 90.738892,126.131584 
z"/>
<path fill="#D1D0D1" opacity="1.000000" stroke="none" 
	d="
M82.292984,128.028961 
	C82.453423,127.660561 82.925270,127.306282 83.707886,126.972565 
	C83.547241,127.343109 83.075813,127.693100 82.292984,128.028961 
z"/>
<path fill="#D1D0D1" opacity="1.000000" stroke="none" 
	d="
M88.713608,56.995369 
	C88.550179,57.326244 88.079315,57.671413 87.293228,58.012955 
	C87.454056,57.676105 87.930115,57.342880 88.713608,56.995369 
z"/>
<path fill="#D1D0D1" opacity="1.000000" stroke="none" 
	d="
M88.706749,128.976257 
	C88.543709,129.336716 88.070435,129.686447 87.286430,130.023773 
	C87.449303,129.662750 87.922905,129.314117 88.706749,128.976257 
z"/>
<path fill="#D1D0D1" opacity="1.000000" stroke="none" 
	d="
M68.739548,106.133072 
	C68.844963,106.555542 68.682373,107.130119 68.253334,107.859924 
	C68.148438,107.438492 68.309982,106.861839 68.739548,106.133072 
z"/>
<path fill="#D1D0D1" opacity="1.000000" stroke="none" 
	d="
M81.703796,61.975212 
	C81.541634,62.329762 81.068893,62.672161 80.286346,63.012527 
	C80.448769,62.661354 80.920998,62.312210 81.703796,61.975212 
z"/>
<path fill="#D1D0D1" opacity="1.000000" stroke="none" 
	d="
M85.832062,81.719788 
	C85.396126,81.821877 84.772293,81.635918 83.904907,81.209641 
	C84.322289,81.123466 84.983231,81.277611 85.832062,81.719788 
z"/>
<path fill="#D1D0D1" opacity="1.000000" stroke="none" 
	d="
M106.142914,92.251724 
	C106.568474,92.168991 107.159782,92.347702 107.891922,92.815941 
	C107.458054,92.908035 106.883362,92.710602 106.142914,92.251724 
z"/>
<path fill="#D1D0D1" opacity="1.000000" stroke="none" 
	d="
M85.707367,58.990913 
	C85.543808,59.329674 85.070854,59.673527 84.289108,60.012753 
	C84.452858,59.670753 84.925415,59.333378 85.707367,58.990913 
z"/>
<path fill="#D1D0D1" opacity="1.000000" stroke="none" 
	d="
M67.723450,108.112976 
	C67.843323,108.554008 67.678299,109.126617 67.250397,109.856819 
	C67.137863,109.424454 67.288208,108.834503 67.723450,108.112976 
z"/>
<path fill="#D1D0D1" opacity="1.000000" stroke="none" 
	d="
M80.244400,129.943451 
	C80.174133,129.737198 80.359528,129.459457 80.781296,129.083252 
	C80.845146,129.280533 80.672600,129.576263 80.244400,129.943451 
z"/>
<path fill="#D1D0D1" opacity="1.000000" stroke="none" 
	d="
M77.771713,65.074226 
	C77.837990,65.275703 77.663132,65.569557 77.234489,65.938698 
	C77.163994,65.731529 77.347282,65.449059 77.771713,65.074226 
z"/>
<path fill="#D1D0D1" opacity="1.000000" stroke="none" 
	d="
M78.771652,64.073242 
	C78.838524,64.275574 78.663925,64.569542 78.235596,64.938217 
	C78.164627,64.730240 78.347397,64.447563 78.771652,64.073242 
z"/>
<path fill="#D1D0D1" opacity="1.000000" stroke="none" 
	d="
M82.989738,80.051857 
	C82.745140,80.094627 82.458565,79.817024 82.064102,79.261734 
	C82.286736,79.233200 82.617249,79.482338 82.989738,80.051857 
z"/>
<path fill="#D1D0D1" opacity="1.000000" stroke="none" 
	d="
M89.756577,128.050491 
	C89.831322,128.263809 89.647011,128.544952 89.223022,128.920563 
	C89.154739,128.716110 89.326126,128.417221 89.756577,128.050491 
z"/>
<path fill="#D1D0D1" opacity="1.000000" stroke="none" 
	d="
M81.240463,128.944336 
	C81.172646,128.740387 81.360435,128.463120 81.783386,128.084808 
	C81.844383,128.279510 81.670219,128.575272 81.240463,128.944336 
z"/>
<path fill="#D1D0D1" opacity="1.000000" stroke="none" 
	d="
M86.764160,58.063011 
	C86.839806,58.272350 86.664597,58.565079 86.235405,58.936111 
	C86.158722,58.725075 86.336014,58.435741 86.764160,58.063011 
z"/>
<path fill="#D1D0D1" opacity="1.000000" stroke="none" 
	d="
M79.773743,63.070419 
	C79.840637,63.272877 79.665207,63.567307 79.235695,63.937481 
	C79.164879,63.729614 79.348152,63.445999 79.773743,63.070419 
z"/>
<path fill="#D1D0D1" opacity="1.000000" stroke="none" 
	d="
M76.759308,80.049927 
	C76.839554,80.278656 76.664185,80.575638 76.234612,80.943459 
	C76.154831,80.715591 76.329262,80.416885 76.759308,80.049927 
z"/>
<path fill="#D1D0D1" opacity="1.000000" stroke="none" 
	d="
M139.225357,124.920403 
	C139.159897,124.719742 139.331604,124.423080 139.759766,124.057419 
	C139.831650,124.267082 139.647095,124.545746 139.225357,124.920403 
z"/>
<path fill="#D1D0D1" opacity="1.000000" stroke="none" 
	d="
M86.931702,82.774117 
	C86.724014,82.844727 86.424789,82.672356 86.056480,82.240891 
	C86.271652,82.164909 86.555901,82.348022 86.931702,82.774117 
z"/>
<path fill="#D1D0D1" opacity="1.000000" stroke="none" 
	d="
M100.052139,87.157166 
	C100.265472,87.095757 100.562859,87.295586 100.937256,87.757507 
	C100.721573,87.819199 100.428879,87.618805 100.052139,87.157166 
z"/>
<path fill="#D1D0D1" opacity="1.000000" stroke="none" 
	d="
M104.752991,113.052818 
	C104.831985,113.272400 104.654198,113.558510 104.230827,113.928185 
	C104.155556,113.714279 104.325882,113.416809 104.752991,113.052818 
z"/>
<path fill="#D1D0D1" opacity="1.000000" stroke="none" 
	d="
M140.225952,123.920052 
	C140.159912,123.718864 140.331360,123.421494 140.760513,123.055389 
	C140.833282,123.265717 140.648346,123.544785 140.225952,123.920052 
z"/>
<path fill="#D1D0D1" opacity="1.000000" stroke="none" 
	d="
M104.070877,90.230637 
	C104.277863,90.160774 104.573074,90.333801 104.939438,90.761429 
	C104.726753,90.835197 104.442924,90.654366 104.070877,90.230637 
z"/>
<path fill="#D1D0D1" opacity="1.000000" stroke="none" 
	d="
M95.757843,122.053215 
	C95.831360,122.263634 95.647713,122.544182 95.224762,122.918533 
	C95.157196,122.715996 95.328941,122.419670 95.757843,122.053215 
z"/>
<path fill="#D1D0D1" opacity="1.000000" stroke="none" 
	d="
M105.073868,91.232117 
	C105.281647,91.161598 105.579376,91.333672 105.946236,91.763474 
	C105.731514,91.839035 105.447662,91.656876 105.073868,91.232117 
z"/>
<path fill="#D1D0D1" opacity="1.000000" stroke="none" 
	d="
M142.241989,120.938766 
	C142.164261,120.723541 142.343430,120.429131 142.770767,120.039398 
	C142.845581,120.249252 142.672241,120.554405 142.241989,120.938766 
z"/>
<path fill="#D1D0D1" opacity="1.000000" stroke="none" 
	d="
M97.783981,119.082138 
	C97.840965,119.272308 97.664360,119.567459 97.233223,119.939438 
	C97.169250,119.739883 97.359818,119.463501 97.783981,119.082138 
z"/>
<path fill="#D1D0D1" opacity="1.000000" stroke="none" 
	d="
M100.756622,117.056290 
	C100.831009,117.268616 100.649521,117.552208 100.225403,117.925461 
	C100.155418,117.719261 100.328079,117.423409 100.756622,117.056290 
z"/>
<path fill="#D1D0D1" opacity="1.000000" stroke="none" 
	d="
M107.718185,109.255417 
	C107.788620,109.423820 107.621262,109.625916 107.229034,109.882126 
	C107.150139,109.715706 107.308884,109.500000 107.718185,109.255417 
z"/>
<path fill="#D1D0D1" opacity="1.000000" stroke="none" 
	d="
M101.752747,116.053558 
	C101.829620,116.269363 101.649605,116.552261 101.227341,116.923859 
	C101.155350,116.715256 101.325600,116.417953 101.752747,116.053558 
z"/>
<path fill="#D1D0D1" opacity="1.000000" stroke="none" 
	d="
M102.756195,115.055313 
	C102.834061,115.270554 102.655403,115.556389 102.231583,115.925949 
	C102.157509,115.715088 102.328590,115.420494 102.756195,115.055313 
z"/>
<path fill="#D1D0D1" opacity="1.000000" stroke="none" 
	d="
M105.786133,111.950111 
	C105.861794,112.149940 105.686409,112.476082 105.248734,112.906204 
	C105.169319,112.698929 105.352203,112.387680 105.786133,111.950111 
z"/>
<path fill="#D1D0D1" opacity="1.000000" stroke="none" 
	d="
M103.757355,114.057602 
	C103.832436,114.269997 103.653175,114.554817 103.229324,114.926208 
	C103.157494,114.718529 103.330254,114.424278 103.757355,114.057602 
z"/>
<path fill="#C4C4C4" opacity="1.000000" stroke="none" 
	d="
M121.313980,83.875122 
	C121.432503,80.211403 122.682915,76.664513 124.817352,73.124252 
	C124.826691,76.819092 123.546104,80.375778 121.313980,83.875122 
z"/>
<path fill="#D1D0D1" opacity="1.000000" stroke="none" 
	d="
M126.986862,67.747696 
	C125.587265,67.797333 124.386360,68.364830 122.952316,69.859283 
	C123.099579,66.760452 123.344551,64.638977 125.639450,63.064514 
	C126.883995,64.050697 126.276245,65.336029 126.770432,66.768463 
	C126.977531,67.062988 126.982574,67.519478 126.986862,67.747696 
z"/>
<path fill="#FFFFFF" opacity="1.000000" stroke="none" 
	d="
M126.987030,66.701111 
	C125.760643,66.223000 125.972816,64.957001 125.991364,63.380745 
	C126.189194,62.746429 126.385361,62.480591 126.810883,62.110439 
	C127.041519,62.728405 127.042793,63.450687 127.047424,64.531693 
	C127.032684,65.373360 127.014603,65.856293 126.987030,66.701111 
z"/>
<path fill="#C4C4C4" opacity="1.000000" stroke="none" 
	d="
M120.235771,87.018585 
	C120.109657,86.301750 120.257652,85.341049 120.708954,84.179199 
	C120.844795,84.910278 120.677338,85.842506 120.235771,87.018585 
z"/>
<path fill="#D1D0D1" opacity="1.000000" stroke="none" 
	d="
M97.389084,61.007790 
	C96.938423,59.371288 97.057533,57.906719 99.189240,58.014019 
	C100.083580,58.059040 100.910164,58.416954 100.823181,59.374680 
	C100.658676,61.186077 99.095268,60.936222 97.389084,61.007790 
z"/>
<path fill="#C4C4C4" opacity="1.000000" stroke="none" 
	d="
M117.137344,84.224205 
	C117.495163,83.528328 117.735718,82.839012 118.047409,82.805183 
	C119.469719,82.650818 118.962608,83.819893 118.701424,84.269775 
	C118.339470,84.893250 118.600052,86.336174 117.175995,85.878265 
	C117.008080,85.824272 117.087875,84.999886 117.137344,84.224205 
z"/>
<path fill="#FFFFFF" opacity="1.000000" stroke="none" 
	d="
M83.284714,68.965378 
	C83.091347,68.364059 83.086266,67.636620 83.913223,67.498764 
	C84.087883,67.469650 84.327843,67.832253 84.537712,68.014374 
	C84.214951,68.319832 83.892181,68.625290 83.284714,68.965378 
z"/>
<path fill="#C4C4C4" opacity="1.000000" stroke="none" 
	d="
M121.238983,75.813049 
	C121.076141,75.167366 121.239090,74.402466 121.402039,73.637573 
	C122.342590,74.252853 121.908936,74.976891 121.238983,75.813049 
z"/>
<path fill="#C4C4C4" opacity="1.000000" stroke="none" 
	d="
M119.376068,79.615471 
	C119.976326,79.856827 119.959366,80.212997 119.475800,80.538528 
	C119.385948,80.278908 119.296104,80.019287 119.376068,79.615471 
z"/>
<path fill="#C4C4C4" opacity="1.000000" stroke="none" 
	d="
M121.032074,76.032249 
	C120.940720,76.541054 121.243385,77.235100 120.415833,77.354424 
	C120.428307,76.968437 120.440781,76.582451 120.683212,76.064362 
	C120.913185,75.932259 120.993607,75.997566 121.032074,76.032249 
z"/>
<path fill="#D1D0D1" opacity="1.000000" stroke="none" 
	d="
M97.039276,61.052326 
	C96.762840,61.591652 96.418251,62.014107 95.746101,61.664246 
	C95.968903,61.434628 96.191704,61.205013 96.666656,60.945282 
	C96.918808,60.915161 97.000717,61.005226 97.039276,61.052326 
z"/>
<path fill="#FFFFFF" opacity="1.000000" stroke="none" 
	d="
M82.861572,69.054138 
	C82.907715,69.036095 82.815422,69.072182 82.861572,69.054138 
z"/>
<path fill="#FFFFFF" opacity="1.000000" stroke="none" 
	d="
M115.959991,105.931602 
	C115.880745,106.122627 115.713081,106.128838 115.295456,106.106728 
	C115.208412,105.687775 115.367073,105.286545 115.959991,105.931602 
z"/>
</svg>